Coordinates
version=1
nRows=22
nColumns=24
inDegrees=yes

Units are S.I. units (second, meters, Newtons, ...)
Angles are in degrees.

endheader
time	pelvis_tilt	pelvis_list	pelvis_rotation	pelvis_tx	pelvis_ty	pelvis_tz	hip_flexion_r	hip_adduction_r	hip_rotation_r	knee_angle_r	ankle_angle_r	subtalar_angle_r	mtp_angle_r	hip_flexion_l	hip_adduction_l	hip_rotation_l	knee_angle_l	ankle_angle_l	subtalar_angle_l	mtp_angle_l	lumbar_extension	lumbar_bending	lumbar_rotation
     41.43000000	     -1.90866417	      0.46808390	      0.97869847	      0.23278109	      0.92100040	      0.00754045	     -2.22595412	     -3.40938646	     -6.72786290	     -2.91886615	      6.68596829	     -6.13390975	      0.00000000	     -0.90051882	     -3.25973801	     -0.70071154	     -3.42487239	      6.39524872	     -5.80412186	      0.00000000	     -5.50136390	      0.92834260	     -5.08078236
     41.44000000	     -2.06279540	      0.47263406	      0.94634292	      0.23259738	      0.92071519	      0.00752585	     -2.03434970	     -3.42529957	     -6.70007150	     -2.94173943	      6.75362209	     -6.11831582	      0.00000000	     -0.73404572	     -3.24742109	     -0.75803054	     -3.41458730	      6.43317846	     -5.76812272	      0.00000000	     -5.32366330	      0.91060898	     -5.03087859
     41.45000000	     -2.09378243	      0.46722464	      0.94958422	      0.23243712	      0.92057943	      0.00748634	     -2.01252327	     -3.41868980	     -6.72289930	     -2.89483556	      6.76590712	     -6.11937496	      0.00000000	     -0.72047522	     -3.25081075	     -0.77862766	     -3.35986856	      6.44909898	     -5.76920682	      0.00000000	     -5.29516425	      0.90477406	     -5.02070931
     41.46000000	     -2.18294014	      0.45516123	      0.93485978	      0.23231878	      0.92053157	      0.00745447	     -1.91104879	     -3.41340484	     -6.76479759	     -2.87126889	      6.68451710	     -6.06176813	      0.00000000	     -0.62589020	     -3.26085772	     -0.80566937	     -3.33823902	      6.40075327	     -5.74410055	      0.00000000	     -5.20135165	      0.90945503	     -4.99333417
     41.47000000	     -2.19069493	      0.45032041	      0.93955358	      0.23209811	      0.92047540	      0.00739715	     -1.89670883	     -3.41291528	     -6.76768862	     -2.85660857	      6.68787386	     -6.06217179	      0.00000000	     -0.61214047	     -3.26179836	     -0.80594891	     -3.32043771	      6.40438214	     -5.74482053	      0.00000000	     -5.22516786	      0.90868878	     -4.98899155
     41.48000000	     -2.20787082	      0.42951449	      0.94165226	      0.23194356	      0.92029798	      0.00732596	     -1.90212422	     -3.38792861	     -6.80111483	     -2.78840369	      6.71642987	     -6.06439411	      0.00000000	     -0.62625418	     -3.27819813	     -0.74762707	     -3.24292138	      6.44717256	     -5.77987063	      0.00000000	     -5.22371781	      0.92777408	     -4.92419317
     41.49000000	     -2.17100919	      0.41065057	      0.97331296	      0.23178009	      0.92034507	      0.00719817	     -1.97138485	     -3.37094721	     -6.90856876	     -2.70797054	      6.63808351	     -5.97846252	      0.00000000	     -0.67335102	     -3.29346287	     -0.62666036	     -3.19984662	      6.43465049	     -5.88165497	      0.00000000	     -5.30977196	      0.95089004	     -4.94726333
     41.50000000	     -2.12956849	      0.41707474	      0.97932787	      0.23169576	      0.92037401	      0.00708831	     -2.05325813	     -3.38261796	     -6.96692338	     -2.61973558	      6.62486920	     -5.92980017	      0.00000000	     -0.75648998	     -3.27888339	     -0.50434769	     -3.11340997	      6.37485748	     -6.00709537	      0.00000000	     -5.39744758	      0.94895664	     -4.94748698
     41.51000000	     -2.18081947	      0.41152644	      1.07602362	      0.23133782	      0.92024982	      0.00702402	     -2.01351826	     -3.36779448	     -7.04600429	     -2.57167517	      6.63534111	     -5.94121553	      0.00000000	     -0.67938091	     -3.28894489	     -0.63855927	     -3.06370444	      6.29705460	     -5.85158634	      0.00000000	     -5.41267792	      0.94176877	     -5.03081831
     41.52000000	     -2.30373950	      0.39195003	      1.16228167	      0.23092715	      0.92003532	      0.00699920	     -1.86219830	     -3.33846339	     -7.08889789	     -2.58266230	      6.61923553	     -5.99185642	      0.00000000	     -0.48698593	     -3.31621501	     -0.83766675	     -3.09152361	      6.40663563	     -5.52016593	      0.00000000	     -5.33918779	      0.94755659	     -5.09446237
     41.53000000	     -2.33876951	      0.39113279	      1.16871051	      0.23083553	      0.92004998	      0.00695979	     -1.82793692	     -3.34150136	     -7.09443478	     -2.56223494	      6.59842637	     -5.99012163	      0.00000000	     -0.45331350	     -3.31697788	     -0.81719211	     -3.06789548	      6.38629442	     -5.51875860	      0.00000000	     -5.34679380	      0.95121881	     -5.04320576
     41.54000000	     -2.35020168	      0.39266079	      1.17740928	      0.23067712	      0.92001132	      0.00693513	     -1.81204810	     -3.34317892	     -7.09302271	     -2.55083326	      6.59910004	     -5.99066286	      0.00000000	     -0.43848457	     -3.31362053	     -0.81811405	     -3.05322556	      6.38721731	     -5.51971655	      0.00000000	     -5.37372491	      0.95452024	     -5.04045736
     41.55000000	     -2.39617045	      0.40602777	      1.17990137	      0.23047774	      0.91982278	      0.00686535	     -1.73824001	     -3.36161288	     -7.04727702	     -2.58401936	      6.65360496	     -6.07673555	      0.00000000	     -0.38013241	     -3.29056666	     -0.67693197	     -3.05078788	      6.40557312	     -5.66083630	      0.00000000	     -5.35169143	      0.95260556	     -5.01956124
     41.56000000	     -2.40717076	      0.40412234	      1.19357188	      0.23029352	      0.91983873	      0.00680627	     -1.70145895	     -3.36567693	     -7.03013860	     -2.60805635	      6.63090659	     -6.07997740	      0.00000000	     -0.34906750	     -3.29092478	     -0.62546231	     -3.05991291	      6.37105358	     -5.66150928	      0.00000000	     -5.37425554	      0.96328541	     -4.99365733
     41.57000000	     -2.42999022	      0.41006225	      1.22104462	      0.23013325	      0.91983680	      0.00673774	     -1.65572163	     -3.37723125	     -6.99468697	     -2.63994574	      6.63038547	     -6.14913926	      0.00000000	     -0.30544938	     -3.28007206	     -0.51023757	     -3.06627442	      6.34219129	     -5.78963985	      0.00000000	     -5.37237627	      0.96282380	     -4.97711583
     41.58000000	     -2.43563278	      0.41233456	      1.22856909	      0.22998558	      0.91982003	      0.00670150	     -1.64434442	     -3.37886026	     -6.99044023	     -2.63109710	      6.63066155	     -6.14986114	      0.00000000	     -0.29375631	     -3.27299957	     -0.50807306	     -3.05717597	      6.34117618	     -5.79005075	      0.00000000	     -5.40167729	      0.97231387	     -4.97747082
     41.59000000	     -2.37040702	      0.41137570	      1.26550190	      0.22975770	      0.91988406	      0.00661969	     -1.70434781	     -3.37489508	     -6.95529674	     -2.64033626	      6.63069408	     -6.25620920	      0.00000000	     -0.34332413	     -3.27058798	     -0.39386808	     -3.06058633	      6.33332787	     -5.88282682	      0.00000000	     -5.52358695	      0.98302916	     -4.99317029
     41.60000000	     -2.36174372	      0.41162821	      1.28674363	      0.22960458	      0.92001581	      0.00658029	     -1.70450095	     -3.38032097	     -6.93260840	     -2.64138954	      6.59028240	     -6.25655849	      0.00000000	     -0.33536364	     -3.27190817	     -0.36731731	     -3.06389178	      6.28271867	     -5.86841617	      0.00000000	     -5.56541850	      0.98675142	     -4.98457791
     41.61000000	     -2.36444761	      0.41355876	      1.29880393	      0.22946162	      0.92001890	      0.00653093	     -1.69964785	     -3.38254760	     -6.92948495	     -2.63343936	      6.58991662	     -6.25851891	      0.00000000	     -0.32630600	     -3.26583164	     -0.36932877	     -3.05267058	      6.28269564	     -5.86992243	      0.00000000	     -5.58380960	      0.99290625	     -4.98104516
     41.62000000	     -2.33182430	      0.41822502	      1.31871740	      0.22925439	      0.91995140	      0.00649175	     -1.74191864	     -3.38317821	     -6.88356295	     -2.59918314	      6.59766311	     -6.32422656	      0.00000000	     -0.34338626	     -3.25882946	     -0.32511422	     -3.06019710	      6.28985515	     -5.88392150	      0.00000000	     -5.64452633	      0.98572979	     -4.94072138
     41.63000000	     -2.33162921	      0.41849407	      1.32476281	      0.22911524	      0.91997318	      0.00645646	     -1.73608917	     -3.38493824	     -6.88323481	     -2.59535650	      6.59583124	     -6.32686803	      0.00000000	     -0.33672244	     -3.25827968	     -0.32953700	     -3.05089091	      6.28954250	     -5.88445690	      0.00000000	     -5.65799965	      0.98767961	     -4.94006792
     41.64000000	     -2.31396119	      0.41176777	      1.31611579	      0.22897050	      0.92001962	      0.00650093	     -1.74975353	     -3.37311267	     -6.83855263	     -2.57803106	      6.50474956	     -6.43471313	      0.00000000	     -0.35019858	     -3.26875634	     -0.41286976	     -3.03711114	      6.23743864	     -5.83872387	      0.00000000	     -5.68641164	      0.98306874	     -4.90820755
